# Made in Blockbench 3.4.2
mtllib redic.mtl
o cube
v 0.3955266952966369 0.27052669529663687 0.09152913087920389
v -0.08459708691207964 0.3529029130879204 -0.1897208691207961
v 0.47790291308792043 -0.20959708691207962 -0.1897208691207961
v -0.0022208691207961095 -0.1272208691207961 -0.4709708691207961
v -0.3658470869120796 0.07165291308792036 0.20802669529663692
v 0.11427669529663692 -0.010723304703363148 0.4892766952966369
v -0.2834708691207961 -0.4084708691207961 -0.07322330470336308
v 0.19665291308792043 -0.4908470869120796 0.20802669529663692
vt 0 1
vt 0 0.4375
vt 0.5625 1
vt 0 0.4375
vt 0.5625 0.4375
vt 0.5625 1
vt 0 1
vt 0 0.4375
vt 0.5625 1
vt 0 0.4375
vt 0.5625 0.4375
vt 0.5625 1
vt 0 1
vt 0 0.4375
vt 0.5625 1
vt 0 0.4375
vt 0.5625 0.4375
vt 0.5625 1
vt 0 1
vt 0 0.4375
vt 0.5625 1
vt 0 0.4375
vt 0.5625 0.4375
vt 0.5625 1
vt 0 1
vt 0 0.4375
vt 0.5625 1
vt 0 0.4375
vt 0.5625 0.4375
vt 0.5625 1
vt 0 1
vt 0 0.4375
vt 0.5625 1
vt 0 0.4375
vt 0.5625 0.4375
vt 0.5625 1
vn 0.5 0.5 -0.7071067811865476
vn 0.5 0.5 -0.7071067811865476
vn 0.5 0.5 -0.7071067811865476
vn 0.5 0.5 -0.7071067811865476
vn 0.5 0.5 -0.7071067811865476
vn 0.5 0.5 -0.7071067811865476
vn -0.5 -0.5 0.7071067811865476
vn -0.5 -0.5 0.7071067811865476
vn -0.5 -0.5 0.7071067811865476
vn -0.5 -0.5 0.7071067811865476
vn -0.5 -0.5 0.7071067811865476
vn -0.5 -0.5 0.7071067811865476
vn -0.1464466094067262 0.8535533905932738 0.5
vn -0.1464466094067262 0.8535533905932738 0.5
vn -0.1464466094067262 0.8535533905932738 0.5
vn -0.1464466094067262 0.8535533905932738 0.5
vn -0.1464466094067262 0.8535533905932738 0.5
vn -0.1464466094067262 0.8535533905932738 0.5
vn 0.1464466094067262 -0.8535533905932738 -0.5
vn 0.1464466094067262 -0.8535533905932738 -0.5
vn 0.1464466094067262 -0.8535533905932738 -0.5
vn 0.1464466094067262 -0.8535533905932738 -0.5
vn 0.1464466094067262 -0.8535533905932738 -0.5
vn 0.1464466094067262 -0.8535533905932738 -0.5
vn 0.8535533905932737 -0.1464466094067262 0.5
vn 0.8535533905932737 -0.1464466094067262 0.5
vn 0.8535533905932737 -0.1464466094067262 0.5
vn 0.8535533905932737 -0.1464466094067262 0.5
vn 0.8535533905932737 -0.1464466094067262 0.5
vn 0.8535533905932737 -0.1464466094067262 0.5
vn -0.8535533905932737 0.1464466094067262 -0.5
vn -0.8535533905932737 0.1464466094067262 -0.5
vn -0.8535533905932737 0.1464466094067262 -0.5
vn -0.8535533905932737 0.1464466094067262 -0.5
vn -0.8535533905932737 0.1464466094067262 -0.5
vn -0.8535533905932737 0.1464466094067262 -0.5
usemtl 0
f 1/1/1 3/2/2 2/3/3
f 3/4/4 4/5/5 2/6/6
usemtl 0
f 5/7/7 7/8/8 6/9/9
f 7/10/10 8/11/11 6/12/12
usemtl 0
f 5/13/13 6/14/14 2/15/15
f 6/16/16 1/17/17 2/18/18
usemtl 0
f 8/19/19 7/20/20 3/21/21
f 7/22/22 4/23/23 3/24/24
usemtl 0
f 6/25/25 8/26/26 1/27/27
f 8/28/28 3/29/29 1/30/30
usemtl 0
f 2/31/31 4/32/32 5/33/33
f 4/34/34 7/35/35 5/36/36
o cube
v -0.3470139049644463 -0.24464748879102904 -0.33691811936506
v -0.33797990756115887 -0.2640209587422443 -0.39564890816417925
v -0.2477310894726706 -0.45756017370081564 -0.25141308353364283
v -0.23869709206938317 -0.47693364365203095 -0.3101438723327621
v -0.39462414425094955 -0.29043460010103805 -0.39564890816417925
v -0.40365814165423697 -0.2710611301498228 -0.33691811936506
v -0.29534132875917385 -0.5033472850108246 -0.3101438723327621
v -0.30437532616246127 -0.48397381505960935 -0.25141308353364283
vt 0 1
vt 0 0.75
vt 0.06249999999999997 1
vt 0 0.75
vt 0.06249999999999997 0.75
vt 0.06249999999999997 1
vt 0 1
vt 0 0.75
vt 0.06249999999999997 1
vt 0 0.75
vt 0.06249999999999997 0.75
vt 0.06249999999999997 1
vt 0 1
vt 0 0.9375
vt 0.06250000000000006 1
vt 0 0.9375
vt 0.06250000000000006 0.9375
vt 0.06250000000000006 1
vt 0 1
vt 0 0.9375
vt 0.06250000000000006 1
vt 0 0.9375
vt 0.06250000000000006 0.9375
vt 0.06250000000000006 1
vt 0 1
vt 0 0.75
vt 0.06250000000000006 1
vt 0 0.75
vt 0.06250000000000006 0.75
vt 0.06250000000000006 1
vt 0 1
vt 0 0.75
vt 0.06250000000000006 1
vt 0 0.75
vt 0.06250000000000006 0.75
vt 0.06250000000000006 1
vn 0.9063077870366499 0.42261826174069944 0
vn 0.9063077870366499 0.42261826174069944 0
vn 0.9063077870366499 0.42261826174069944 0
vn 0.9063077870366499 0.42261826174069944 0
vn 0.9063077870366499 0.42261826174069944 0
vn 0.9063077870366499 0.42261826174069944 0
vn -0.9063077870366499 -0.42261826174069944 0
vn -0.9063077870366499 -0.42261826174069944 0
vn -0.9063077870366499 -0.42261826174069944 0
vn -0.9063077870366499 -0.42261826174069944 0
vn -0.9063077870366499 -0.42261826174069944 0
vn -0.9063077870366499 -0.42261826174069944 0
vn -0.39713126196710286 0.8516507396391465 -0.34202014332566866
vn -0.39713126196710286 0.8516507396391465 -0.34202014332566866
vn -0.39713126196710286 0.8516507396391465 -0.34202014332566866
vn -0.39713126196710286 0.8516507396391465 -0.34202014332566866
vn -0.39713126196710286 0.8516507396391465 -0.34202014332566866
vn -0.39713126196710286 0.8516507396391465 -0.34202014332566866
vn 0.39713126196710286 -0.8516507396391465 0.34202014332566866
vn 0.39713126196710286 -0.8516507396391465 0.34202014332566866
vn 0.39713126196710286 -0.8516507396391465 0.34202014332566866
vn 0.39713126196710286 -0.8516507396391465 0.34202014332566866
vn 0.39713126196710286 -0.8516507396391465 0.34202014332566866
vn 0.39713126196710286 -0.8516507396391465 0.34202014332566866
vn -0.144543958452599 0.30997551921944466 0.9396926207859084
vn -0.144543958452599 0.30997551921944466 0.9396926207859084
vn -0.144543958452599 0.30997551921944466 0.9396926207859084
vn -0.144543958452599 0.30997551921944466 0.9396926207859084
vn -0.144543958452599 0.30997551921944466 0.9396926207859084
vn -0.144543958452599 0.30997551921944466 0.9396926207859084
vn 0.144543958452599 -0.30997551921944466 -0.9396926207859084
vn 0.144543958452599 -0.30997551921944466 -0.9396926207859084
vn 0.144543958452599 -0.30997551921944466 -0.9396926207859084
vn 0.144543958452599 -0.30997551921944466 -0.9396926207859084
vn 0.144543958452599 -0.30997551921944466 -0.9396926207859084
vn 0.144543958452599 -0.30997551921944466 -0.9396926207859084
usemtl 1
f 9/37/37 11/38/38 10/39/39
f 11/40/40 12/41/41 10/42/42
usemtl 1
f 13/43/43 15/44/44 14/45/45
f 15/46/46 16/47/47 14/48/48
usemtl 1
f 13/49/49 14/50/50 10/51/51
f 14/52/52 9/53/53 10/54/54
usemtl 1
f 16/55/55 15/56/56 11/57/57
f 15/58/58 12/59/59 11/60/60
usemtl 1
f 14/61/61 16/62/62 9/63/63
f 16/64/64 11/65/65 9/66/66
usemtl 1
f 10/67/67 12/68/68 13/69/69
f 12/70/70 15/71/71 13/72/72
o cube
v 0.5387155303160482 -0.3210222027366958 0.3703978410066532
v 0.5491133850249733 -0.30863052203206165 0.3100274768635864
v 0.3834942420623368 -0.5060077306601578 0.305693079731023
v 0.3938920967712619 -0.4936160499555236 0.2453227155879562
v 0.5012356073300369 -0.2684562964266528 0.3100274768635864
v 0.4908377526211118 -0.28084797713128695 0.3703978410066532
v 0.3460143190763256 -0.45344182435011476 0.2453227155879562
v 0.3356164643674005 -0.4658335050547489 0.305693079731023
vt 0 1
vt 0 0.75
vt 0.0625 1
vt 0 0.75
vt 0.0625 0.75
vt 0.0625 1
vt 0 1
vt 0 0.75
vt 0.0625 1
vt 0 0.75
vt 0.0625 0.75
vt 0.0625 1
vt 0 1
vt 0 0.9375
vt 0.06250000000000022 1
vt 0 0.9375
vt 0.06250000000000022 0.9375
vt 0.06250000000000022 1
vt 0 1
vt 0 0.9375
vt 0.06250000000000022 1
vt 0 0.9375
vt 0.06250000000000022 0.9375
vt 0.06250000000000022 1
vt 0 1
vt 0 0.75
vt 0.06250000000000022 1
vt 0 0.75
vt 0.06250000000000022 0.75
vt 0.06250000000000022 1
vt 0 1
vt 0 0.75
vt 0.06250000000000022 1
vt 0 0.75
vt 0.06250000000000022 0.75
vt 0.06250000000000022 1
vn 0.766044443118978 -0.6427876096865394 0
vn 0.766044443118978 -0.6427876096865394 0
vn 0.766044443118978 -0.6427876096865394 0
vn 0.766044443118978 -0.6427876096865394 0
vn 0.766044443118978 -0.6427876096865394 0
vn 0.766044443118978 -0.6427876096865394 0
vn -0.766044443118978 0.6427876096865394 0
vn -0.766044443118978 0.6427876096865394 0
vn -0.766044443118978 0.6427876096865394 0
vn -0.766044443118978 0.6427876096865394 0
vn -0.766044443118978 0.6427876096865394 0
vn -0.766044443118978 0.6427876096865394 0
vn 0.6208851530148456 0.7399421116938482 0.25881904510252074
vn 0.6208851530148456 0.7399421116938482 0.25881904510252074
vn 0.6208851530148456 0.7399421116938482 0.25881904510252074
vn 0.6208851530148456 0.7399421116938482 0.25881904510252074
vn 0.6208851530148456 0.7399421116938482 0.25881904510252074
vn 0.6208851530148456 0.7399421116938482 0.25881904510252074
vn -0.6208851530148456 -0.7399421116938482 -0.25881904510252074
vn -0.6208851530148456 -0.7399421116938482 -0.25881904510252074
vn -0.6208851530148456 -0.7399421116938482 -0.25881904510252074
vn -0.6208851530148456 -0.7399421116938482 -0.25881904510252074
vn -0.6208851530148456 -0.7399421116938482 -0.25881904510252074
vn -0.6208851530148456 -0.7399421116938482 -0.25881904510252074
vn -0.1663656753428019 -0.19826689127414618 0.9659258262890682
vn -0.1663656753428019 -0.19826689127414618 0.9659258262890682
vn -0.1663656753428019 -0.19826689127414618 0.9659258262890682
vn -0.1663656753428019 -0.19826689127414618 0.9659258262890682
vn -0.1663656753428019 -0.19826689127414618 0.9659258262890682
vn -0.1663656753428019 -0.19826689127414618 0.9659258262890682
vn 0.1663656753428019 0.19826689127414618 -0.9659258262890682
vn 0.1663656753428019 0.19826689127414618 -0.9659258262890682
vn 0.1663656753428019 0.19826689127414618 -0.9659258262890682
vn 0.1663656753428019 0.19826689127414618 -0.9659258262890682
vn 0.1663656753428019 0.19826689127414618 -0.9659258262890682
vn 0.1663656753428019 0.19826689127414618 -0.9659258262890682
usemtl 1
f 17/73/73 19/74/74 18/75/75
f 19/76/76 20/77/77 18/78/78
usemtl 1
f 21/79/79 23/80/80 22/81/81
f 23/82/82 24/83/83 22/84/84
usemtl 1
f 21/85/85 22/86/86 18/87/87
f 22/88/88 17/89/89 18/90/90
usemtl 1
f 24/91/91 23/92/92 19/93/93
f 23/94/94 20/95/95 19/96/96
usemtl 1
f 22/97/97 24/98/98 17/99/99
f 24/100/100 19/101/101 17/102/102
usemtl 1
f 18/103/103 20/104/104 21/105/105
f 20/106/106 23/107/107 21/108/108
o cube
v 0.5470288183382244 -0.34706861048141135 -0.46821139265116446
v 0.5239858291823111 -0.37453017559208046 -0.5194083954192266
v 0.41539362220863363 -0.5039453283806946 -0.324817283563403
v 0.39235063305272033 -0.5314068934913637 -0.37601428633146505
v 0.4761080514873748 -0.3343559499866716 -0.5194083954192266
v 0.4991510406432881 -0.3068943848760025 -0.46821139265116446
v 0.34447285535778405 -0.4912326678859549 -0.37601428633146505
v 0.36751584451369734 -0.46377110277528577 -0.324817283563403
vt 0 1
vt 0 0.7500000000000001
vt 0.06250000000000011 1
vt 0 0.7500000000000001
vt 0.06250000000000011 0.7500000000000001
vt 0.06250000000000011 1
vt 0 1
vt 0 0.7500000000000001
vt 0.06250000000000011 1
vt 0 0.7500000000000001
vt 0.06250000000000011 0.7500000000000001
vt 0.06250000000000011 1
vt 0 1
vt 0 0.9374999999999999
vt 0.06250000000000022 1
vt 0 0.9374999999999999
vt 0.06250000000000022 0.9374999999999999
vt 0.06250000000000022 1
vt 0 1
vt 0 0.9374999999999999
vt 0.06250000000000022 1
vt 0 0.9374999999999999
vt 0.06250000000000022 0.9374999999999999
vt 0.06250000000000022 1
vt 0 1
vt 0 0.7500000000000001
vt 0.06250000000000022 1
vt 0 0.7500000000000001
vt 0.06250000000000022 0.7500000000000001
vt 0.06250000000000022 1
vt 0 1
vt 0 0.7500000000000001
vt 0.06250000000000022 1
vt 0 0.7500000000000001
vt 0.06250000000000022 0.7500000000000001
vt 0.06250000000000022 1
vn 0.7660444431189781 -0.6427876096865394 5.551115123125783e-17
vn 0.7660444431189781 -0.6427876096865394 5.551115123125783e-17
vn 0.7660444431189781 -0.6427876096865394 5.551115123125783e-17
vn 0.7660444431189781 -0.6427876096865394 5.551115123125783e-17
vn 0.7660444431189781 -0.6427876096865394 5.551115123125783e-17
vn 0.7660444431189781 -0.6427876096865394 5.551115123125783e-17
vn -0.7660444431189781 0.6427876096865394 -5.551115123125783e-17
vn -0.7660444431189781 0.6427876096865394 -5.551115123125783e-17
vn -0.7660444431189781 0.6427876096865394 -5.551115123125783e-17
vn -0.7660444431189781 0.6427876096865394 -5.551115123125783e-17
vn -0.7660444431189781 0.6427876096865394 -5.551115123125783e-17
vn -0.7660444431189781 0.6427876096865394 -5.551115123125783e-17
vn 0.5265407845183633 0.6275068715971331 -0.5735764363510462
vn 0.5265407845183633 0.6275068715971331 -0.5735764363510462
vn 0.5265407845183633 0.6275068715971331 -0.5735764363510462
vn 0.5265407845183633 0.6275068715971331 -0.5735764363510462
vn 0.5265407845183633 0.6275068715971331 -0.5735764363510462
vn 0.5265407845183633 0.6275068715971331 -0.5735764363510462
vn -0.5265407845183633 -0.6275068715971331 0.5735764363510462
vn -0.5265407845183633 -0.6275068715971331 0.5735764363510462
vn -0.5265407845183633 -0.6275068715971331 0.5735764363510462
vn -0.5265407845183633 -0.6275068715971331 0.5735764363510462
vn -0.5265407845183633 -0.6275068715971331 0.5735764363510462
vn -0.5265407845183633 -0.6275068715971331 0.5735764363510462
vn 0.36868782649461246 0.4393850417707051 0.8191520442889918
vn 0.36868782649461246 0.4393850417707051 0.8191520442889918
vn 0.36868782649461246 0.4393850417707051 0.8191520442889918
vn 0.36868782649461246 0.4393850417707051 0.8191520442889918
vn 0.36868782649461246 0.4393850417707051 0.8191520442889918
vn 0.36868782649461246 0.4393850417707051 0.8191520442889918
vn -0.36868782649461246 -0.4393850417707051 -0.8191520442889918
vn -0.36868782649461246 -0.4393850417707051 -0.8191520442889918
vn -0.36868782649461246 -0.4393850417707051 -0.8191520442889918
vn -0.36868782649461246 -0.4393850417707051 -0.8191520442889918
vn -0.36868782649461246 -0.4393850417707051 -0.8191520442889918
vn -0.36868782649461246 -0.4393850417707051 -0.8191520442889918
usemtl 1
f 25/109/109 27/110/110 26/111/111
f 27/112/112 28/113/113 26/114/114
usemtl 1
f 29/115/115 31/116/116 30/117/117
f 31/118/118 32/119/119 30/120/120
usemtl 1
f 29/121/121 30/122/122 26/123/123
f 30/124/124 25/125/125 26/126/126
usemtl 1
f 32/127/127 31/128/128 27/129/129
f 31/130/130 28/131/131 27/132/132
usemtl 1
f 30/133/133 32/134/134 25/135/135
f 32/136/136 27/137/137 25/138/138
usemtl 1
f 26/139/139 28/140/140 29/141/141
f 28/142/142 31/143/143 29/144/144
o cube
v -0.39202715392350657 -0.2687675471062827 0.5126583637125919
v -0.39483611989397827 -0.2528371094660215 0.4522879995695251
v -0.3500943390493764 -0.5065803577473319 0.4479536024369618
v -0.3529033050198481 -0.4906499201070707 0.38758323829389496
v -0.4563866044572415 -0.2636901205702047 0.4522879995695251
v -0.4535776384867698 -0.27962055821046583 0.5126583637125919
v -0.41445378958311135 -0.5015029312112539 0.38758323829389496
v -0.41164482361263965 -0.517433368851515 0.4479536024369618
vt 0 1
vt 0 0.7500000000000002
vt 0.0625 1
vt 0 0.7500000000000002
vt 0.0625 0.7500000000000002
vt 0.0625 1
vt 0 1
vt 0 0.7500000000000002
vt 0.0625 1
vt 0 0.7500000000000002
vt 0.0625 0.7500000000000002
vt 0.0625 1
vt 0 1
vt 0 0.9375
vt 0.06250000000000022 1
vt 0 0.9375
vt 0.06250000000000022 0.9375
vt 0.06250000000000022 1
vt 0 1
vt 0 0.9375
vt 0.06250000000000022 1
vt 0 0.9375
vt 0.06250000000000022 0.9375
vt 0.06250000000000022 1
vt 0 1
vt 0 0.703125
vt 0.0625 1
vt 0 0.703125
vt 0.0625 0.703125
vt 0.0625 1
vt 0 1
vt 0 0.7500000000000002
vt 0.06250000000000022 1
vt 0 0.7500000000000002
vt 0.06250000000000022 0.7500000000000002
vt 0.06250000000000022 1
vn 0.9848077530122081 0.17364817766693033 -6.938893903907228e-18
vn 0.9848077530122081 0.17364817766693033 -6.938893903907228e-18
vn 0.9848077530122081 0.17364817766693033 -6.938893903907228e-18
vn 0.9848077530122081 0.17364817766693033 -6.938893903907228e-18
vn 0.9848077530122081 0.17364817766693033 -6.938893903907228e-18
vn 0.9848077530122081 0.17364817766693033 -6.938893903907228e-18
vn -0.9848077530122081 -0.17364817766693033 6.938893903907228e-18
vn -0.9848077530122081 -0.17364817766693033 6.938893903907228e-18
vn -0.9848077530122081 -0.17364817766693033 6.938893903907228e-18
vn -0.9848077530122081 -0.17364817766693033 6.938893903907228e-18
vn -0.9848077530122081 -0.17364817766693033 6.938893903907228e-18
vn -0.9848077530122081 -0.17364817766693033 6.938893903907228e-18
vn -0.16773125949652062 0.9512512425641977 0.2588190451025207
vn -0.16773125949652062 0.9512512425641977 0.2588190451025207
vn -0.16773125949652062 0.9512512425641977 0.2588190451025207
vn -0.16773125949652062 0.9512512425641977 0.2588190451025207
vn -0.16773125949652062 0.9512512425641977 0.2588190451025207
vn -0.16773125949652062 0.9512512425641977 0.2588190451025207
vn 0.16773125949652062 -0.9512512425641977 -0.2588190451025207
vn 0.16773125949652062 -0.9512512425641977 -0.2588190451025207
vn 0.16773125949652062 -0.9512512425641977 -0.2588190451025207
vn 0.16773125949652062 -0.9512512425641977 -0.2588190451025207
vn 0.16773125949652062 -0.9512512425641977 -0.2588190451025207
vn 0.16773125949652062 -0.9512512425641977 -0.2588190451025207
vn 0.04494345552754777 -0.2548870022441787 0.9659258262890683
vn 0.04494345552754777 -0.2548870022441787 0.9659258262890683
vn 0.04494345552754777 -0.2548870022441787 0.9659258262890683
vn 0.04494345552754777 -0.2548870022441787 0.9659258262890683
vn 0.04494345552754777 -0.2548870022441787 0.9659258262890683
vn 0.04494345552754777 -0.2548870022441787 0.9659258262890683
vn -0.04494345552754777 0.2548870022441787 -0.9659258262890683
vn -0.04494345552754777 0.2548870022441787 -0.9659258262890683
vn -0.04494345552754777 0.2548870022441787 -0.9659258262890683
vn -0.04494345552754777 0.2548870022441787 -0.9659258262890683
vn -0.04494345552754777 0.2548870022441787 -0.9659258262890683
vn -0.04494345552754777 0.2548870022441787 -0.9659258262890683
usemtl 1
f 33/145/145 35/146/146 34/147/147
f 35/148/148 36/149/149 34/150/150
usemtl 1
f 37/151/151 39/152/152 38/153/153
f 39/154/154 40/155/155 38/156/156
usemtl 1
f 37/157/157 38/158/158 34/159/159
f 38/160/160 33/161/161 34/162/162
usemtl 1
f 40/163/163 39/164/164 35/165/165
f 39/166/166 36/167/167 35/168/168
usemtl 1
f 38/169/169 40/170/170 33/171/171
f 40/172/172 35/173/173 33/174/174
usemtl 1
f 34/175/175 36/176/176 37/177/177
f 36/178/178 39/179/179 37/180/180
